<?xml version="1.0" encoding="UTF-8" standalone="no"?>
<!-- Created with Inkscape (http://www.inkscape.org/) -->

<svg
   xmlns:dc="http://purl.org/dc/elements/1.1/"
   xmlns:cc="http://creativecommons.org/ns#"
   xmlns:rdf="http://www.w3.org/1999/02/22-rdf-syntax-ns#"
   xmlns:svg="http://www.w3.org/2000/svg"
   xmlns="http://www.w3.org/2000/svg"
   xmlns:sodipodi="http://sodipodi.sourceforge.net/DTD/sodipodi-0.dtd"
   xmlns:inkscape="http://www.inkscape.org/namespaces/inkscape"
   version="1.1"
   id="svg2"
   xml:space="preserve"
   width="641.25586"
   height="207.26247"
   viewBox="0 0 641.25586 207.26248"
   sodipodi:docname="logoMobs.svg"
   inkscape:version="0.92.3 (2405546, 2018-03-11)"><metadata
     id="metadata8"><rdf:RDF><cc:Work
         rdf:about=""><dc:format>image/svg+xml</dc:format><dc:type
           rdf:resource="http://purl.org/dc/dcmitype/StillImage" /><dc:title></dc:title></cc:Work></rdf:RDF></metadata><defs
     id="defs6" /><sodipodi:namedview
     pagecolor="#ffffff"
     bordercolor="#666666"
     borderopacity="1"
     objecttolerance="10"
     gridtolerance="10"
     guidetolerance="10"
     inkscape:pageopacity="0"
     inkscape:pageshadow="2"
     inkscape:window-width="1920"
     inkscape:window-height="1025"
     id="namedview4"
     showgrid="false"
     inkscape:zoom="0.84096523"
     inkscape:cx="97.26321"
     inkscape:cy="289.05472"
     inkscape:window-x="0"
     inkscape:window-y="27"
     inkscape:window-maximized="1"
     inkscape:current-layer="g12" /><g
     id="g10"
     inkscape:groupmode="layer"
     inkscape:label="logoMobs"
     transform="matrix(1.3333333,0,0,1.3333333,-4.696539,-422.04666)"><g
       id="g12"><path
         d="m 195.535,471.641 c -2.519,-0.696 -4.402,-2.621 -5.176,-5.286 -0.578,-1.988 -0.511,-5.898 0.133,-7.738 0.512,-1.465 1.34,-2.781 2.262,-3.582 1.211,-1.062 3.473,-1.867 5.199,-1.855 1.25,0.008 3.258,0.492 3.641,0.871 0.222,0.222 0.09,2.015 -0.149,2.015 -0.043,0 -0.793,-0.168 -1.664,-0.367 -2.144,-0.5 -3.824,-0.019 -5.254,1.492 -1.211,1.278 -1.648,2.747 -1.648,5.528 0,1.422 0.125,2.797 0.293,3.179 1.375,3.188 4.137,4.586 7.23,3.661 0.516,-0.157 0.981,-0.239 1.036,-0.184 0.05,0.055 0.171,0.5 0.261,0.984 0.141,0.762 0.09,0.926 -0.379,1.176 -0.871,0.469 -4.261,0.527 -5.785,0.106 z m 13.817,-0.09 c -3.137,-1.082 -4.629,-3.973 -4.629,-8.961 0,-5.059 1.382,-7.676 4.711,-8.922 1.597,-0.598 2.75,-0.629 4.222,-0.117 2.446,0.847 3.664,2.16 4.571,4.922 0.765,2.328 0.718,6.308 -0.102,8.566 -0.996,2.746 -2.445,4.199 -4.707,4.715 -1.563,0.355 -2.606,0.301 -4.066,-0.203 z m 4.566,-2.371 c 0.43,-0.36 1.055,-1.258 1.394,-1.992 0.551,-1.2 0.618,-1.649 0.629,-4.356 0.016,-3.77 -0.371,-5.07 -1.929,-6.508 -0.938,-0.867 -1.207,-0.984 -2.227,-0.984 -1.617,0 -2.73,0.805 -3.59,2.594 -0.617,1.285 -0.672,1.625 -0.683,4.414 -0.02,3.754 0.308,5.015 1.676,6.441 0.968,1.012 1.054,1.047 2.476,1.047 1.25,0 1.59,-0.098 2.254,-0.656 z m 49.074,2.562 c -0.676,-0.16 -1.406,-0.601 -2.09,-1.258 -1.675,-1.617 -1.82,-2.429 -1.82,-10.246 v -6.613 l 1.266,0.07 1.269,0.075 0.121,6.886 c 0.102,5.871 0.18,6.996 0.532,7.637 0.593,1.082 1.437,1.543 2.824,1.543 1.261,0 2.355,-0.648 2.984,-1.777 0.195,-0.352 0.332,-2.731 0.418,-7.403 l 0.129,-6.886 h 2.414 v 6.765 c 0,7.297 -0.117,8.203 -1.242,9.543 -0.348,0.41 -1.059,0.965 -1.586,1.234 -1.133,0.579 -3.707,0.79 -5.219,0.43 z m 56.332,0.035 c -2.101,-0.449 -4.047,-1.8 -5.039,-3.496 -0.953,-1.625 -1.32,-3.199 -1.324,-5.676 -0.004,-4.48 1.894,-7.667 5.191,-8.71 0.536,-0.168 1.219,-0.403 1.524,-0.52 1.16,-0.437 5.176,-0.059 6.012,0.574 0.238,0.18 0.195,1.77 -0.059,2.078 -0.039,0.047 -0.664,-0.089 -1.395,-0.3 -3.519,-1.024 -6.496,0.32 -7.879,3.558 -0.703,1.656 -0.703,5.199 0.004,6.848 1.114,2.597 2.696,3.703 5.297,3.703 2.129,0 2.418,-0.367 2.414,-3.078 -0.004,-1.164 -0.101,-2.266 -0.215,-2.449 -0.117,-0.184 -0.773,-0.391 -1.46,-0.457 l -1.247,-0.118 0.149,-1.75 h 5.07 l 0.067,4.539 0.066,4.543 -0.895,0.375 c -1.058,0.442 -4.839,0.645 -6.281,0.336 z m -96.605,-0.539 c -0.074,-0.304 -0.106,-4.359 -0.067,-9.011 l 0.067,-8.457 h 4.57 l 0.453,1.449 c 0.25,0.797 0.672,2.265 0.934,3.261 0.262,0.997 0.57,2.141 0.679,2.54 0.114,0.398 0.43,1.554 0.707,2.574 0.774,2.851 0.918,3.148 1.5,3.058 0.512,-0.078 0.665,-0.41 1.418,-3.097 0.168,-0.598 0.387,-1.36 0.489,-1.692 0.101,-0.332 0.324,-1.093 0.488,-1.691 0.352,-1.27 0.52,-1.856 1.27,-4.469 l 0.554,-1.933 4.219,-0.141 -0.062,9.012 -0.067,9.007 h -1.93 l -0.121,-7.007 c -0.121,-6.895 -0.129,-7.008 -0.632,-7.079 -0.368,-0.05 -0.583,0.118 -0.778,0.606 -0.265,0.672 -1.605,5.082 -1.969,6.473 -0.105,0.398 -0.351,1.214 -0.546,1.812 -0.196,0.598 -0.497,1.578 -0.668,2.176 -0.895,3.125 -0.832,3.019 -1.848,3.019 -1.035,0 -0.891,0.29 -2.301,-4.589 -0.269,-0.93 -0.574,-1.965 -0.68,-2.297 -0.101,-0.332 -0.32,-1.094 -0.484,-1.692 -0.164,-0.597 -0.383,-1.359 -0.484,-1.691 -0.102,-0.332 -0.321,-1.09 -0.481,-1.691 -0.492,-1.813 -0.691,-2.172 -1.203,-2.172 -0.473,0 -0.484,0.175 -0.547,7.066 l -0.066,7.066 -1.137,0.075 c -1.019,0.066 -1.156,0.015 -1.277,-0.485 z m 22.105,-8.515 v -9.075 h 3.516 c 2.969,0 3.648,0.071 4.406,0.457 1.809,0.926 2.469,2.207 2.465,4.786 -0.012,3.152 -1.004,4.574 -3.691,5.289 -0.692,0.187 -1.762,0.336 -2.375,0.34 -0.629,0 -1.235,0.14 -1.383,0.32 -0.153,0.183 -0.293,1.676 -0.332,3.562 l -0.067,3.246 -2.539,0.149 z m 6.031,-0.735 c 1.204,-0.621 1.704,-1.488 1.704,-2.957 0,-1.578 -0.516,-2.57 -1.598,-3.082 -0.922,-0.437 -2.781,-0.484 -3.188,-0.078 -0.191,0.191 -0.289,1.234 -0.289,3.094 0,1.859 0.098,2.898 0.289,3.094 0.403,0.402 2.25,0.363 3.082,-0.071 z m 27.969,9.633 c -0.097,-0.098 -0.172,-3.559 -0.172,-7.695 0,-5.528 -0.078,-7.598 -0.293,-7.813 -0.164,-0.164 -0.968,-0.293 -1.871,-0.293 -1.953,-0.008 -2.246,-0.172 -2.144,-1.23 l 0.078,-0.82 5.512,-0.067 5.511,-0.062 -0.148,2.062 -3.867,0.242 -0.242,15.703 -1.098,0.071 c -0.602,0.043 -1.172,-0.004 -1.266,-0.098 z m 9.856,-0.383 c -0.075,-0.304 -0.106,-4.359 -0.071,-9.011 l 0.071,-8.457 h 2.656 v 17.878 l -1.262,0.075 c -1.144,0.066 -1.273,0.023 -1.394,-0.485 z m 7.539,0.383 c -0.094,-0.098 -0.172,-4.18 -0.172,-9.074 v -8.899 h 1.66 c 1.039,0 1.754,0.114 1.906,0.301 0.133,0.168 0.813,1.664 1.508,3.324 4.383,10.438 4.125,9.907 4.859,9.907 0.426,0 0.454,-0.352 0.512,-6.707 l 0.067,-6.703 1.148,-0.075 1.152,-0.074 -0.066,9.016 -0.063,9.011 -1.636,0.075 -1.641,0.07 -0.695,-1.523 c -0.379,-0.836 -1.692,-3.875 -2.914,-6.758 -3.211,-7.574 -3.352,-7.516 -3.438,1.504 l -0.062,6.632 -0.977,0.075 c -0.535,0.039 -1.055,-0.008 -1.148,-0.102 z m 41.625,-8.918 v -9.078 l 1.269,0.07 1.27,0.075 0.062,7.589 c 0.043,5 0.153,7.7 0.325,7.907 0.183,0.218 1.128,0.336 3.078,0.382 l 2.816,0.067 v 1.933 l -8.82,0.133 z m 10.633,8.746 c 0,-0.179 0.984,-3.25 2.187,-6.828 1.203,-3.574 2.469,-7.371 2.809,-8.433 0.339,-1.067 0.73,-2.075 0.871,-2.247 0.168,-0.211 0.75,-0.289 1.804,-0.242 l 1.559,0.071 0.309,0.968 c 0.172,0.532 0.929,2.922 1.691,5.313 0.758,2.394 1.902,5.926 2.539,7.851 0.637,1.93 1.109,3.586 1.051,3.688 -0.063,0.098 -0.652,0.18 -1.309,0.18 -1.347,0 -1.359,-0.012 -2.047,-2.477 -0.578,-2.078 -0.644,-2.113 -4.007,-2.113 -1.594,0 -3.098,0.105 -3.344,0.238 -0.25,0.133 -0.621,0.844 -0.852,1.629 -0.828,2.801 -0.769,2.723 -2.082,2.723 -0.82,0 -1.179,-0.098 -1.179,-0.321 z m 9.906,-6.562 c 0.172,-0.211 0.23,-0.594 0.133,-0.907 -0.09,-0.3 -0.379,-1.363 -0.649,-2.359 -0.265,-0.996 -0.594,-2.191 -0.726,-2.656 -0.133,-0.465 -0.301,-1.086 -0.371,-1.383 -0.168,-0.68 -0.7,-1.125 -1.141,-0.957 -0.191,0.074 -0.524,0.766 -0.738,1.539 -0.219,0.774 -0.664,2.281 -0.989,3.352 -0.586,1.918 -0.746,3.254 -0.433,3.57 0.09,0.086 1.164,0.16 2.386,0.16 1.68,0 2.301,-0.09 2.528,-0.359 z m 8.332,6.597 c -0.07,-0.175 -0.098,-4.234 -0.063,-9.019 l 0.067,-8.695 3.679,-0.067 c 3.266,-0.058 3.79,-0.015 4.614,0.41 1.179,0.602 1.629,1.285 1.84,2.805 0.261,1.914 -0.153,3.23 -1.336,4.238 -0.559,0.477 -0.973,0.985 -0.918,1.133 0.05,0.149 0.464,0.523 0.918,0.828 1.457,0.988 1.765,1.625 1.777,3.664 0.012,1.574 -0.074,1.957 -0.613,2.774 -0.387,0.586 -1.075,1.168 -1.793,1.523 -1.028,0.504 -1.563,0.582 -4.606,0.649 -2.695,0.062 -3.472,0.007 -3.566,-0.243 z m 6.156,-2.004 c 1.152,-0.597 1.699,-1.5 1.699,-2.804 0,-2.192 -0.929,-3.156 -3.199,-3.321 -2.125,-0.152 -2.359,0.153 -2.359,3.083 0,2.972 0.246,3.398 1.961,3.398 0.664,0 1.515,-0.16 1.898,-0.356 z m 0.52,-9.039 c 0.808,-0.808 0.937,-1.082 0.937,-2.019 0,-1.82 -1.449,-3.082 -3.535,-3.082 -1.5,0 -1.781,0.469 -1.781,2.953 0,2.891 0.129,3.086 1.972,3.086 1.383,0 1.524,-0.051 2.407,-0.938 z M 216.422,445.703 c -2.922,-1.328 -4.457,-4.406 -4.453,-8.918 0.004,-3.371 0.945,-6.086 2.636,-7.613 0.985,-0.891 3.243,-1.86 4.317,-1.856 0.777,0.004 2.625,0.539 3.59,1.043 2.633,1.375 4.14,5.829 3.523,10.418 -0.5,3.739 -2.074,6.114 -4.656,7.024 -1.41,0.496 -3.75,0.449 -4.957,-0.098 z m 4.793,-2.25 c 1.582,-1.121 2.547,-5.019 2.078,-8.406 -0.539,-3.906 -1.844,-5.559 -4.387,-5.559 -0.855,0 -1.238,0.16 -2.035,0.84 -1.16,0.992 -1.601,1.992 -2.016,4.567 -0.503,3.128 0.325,6.957 1.805,8.347 1.129,1.063 3.215,1.156 4.555,0.211 z m 120.918,2.426 c -0.59,-0.215 -0.664,-0.363 -0.664,-1.336 v -1.098 l 0.785,0.172 c 1.887,0.406 3.75,0.41 4.527,0.008 1.086,-0.563 1.852,-2.305 1.446,-3.285 -0.391,-0.938 -1.481,-1.867 -3.516,-2.988 -2.141,-1.184 -2.711,-1.704 -3.27,-2.993 -1.187,-2.734 0.016,-5.496 2.86,-6.562 1.488,-0.555 2.547,-0.59 4.418,-0.149 l 1.328,0.317 -0.059,0.922 c -0.031,0.504 -0.109,0.968 -0.172,1.031 -0.062,0.062 -0.601,-0.008 -1.195,-0.156 -1.469,-0.371 -2.449,-0.344 -3.285,0.086 -1.375,0.714 -1.82,2.093 -1.113,3.457 0.211,0.41 1.297,1.222 2.906,2.179 3.344,1.989 3.801,2.625 3.801,5.317 0,2.797 -0.899,4.222 -3.153,4.992 -1.218,0.414 -4.601,0.465 -5.644,0.086 z m 16.844,-0.106 c -3.352,-1.187 -5.223,-5.835 -4.485,-11.125 0.516,-3.668 1.992,-5.804 4.727,-6.828 1.633,-0.609 2.207,-0.625 4.043,-0.113 3.359,0.945 5.258,4.219 5.265,9.078 0.008,5.903 -2.711,9.418 -7.23,9.356 -0.738,-0.012 -1.785,-0.176 -2.32,-0.368 z m 3.554,-1.785 c 0.61,-0.008 1.781,-1.093 2.254,-2.09 0.535,-1.128 1.086,-3.753 1.086,-5.16 0,-1.398 -0.551,-4.043 -1.043,-4.992 -0.211,-0.406 -0.769,-1.078 -1.246,-1.496 -1.484,-1.305 -3.77,-0.965 -5.027,0.746 -1.09,1.481 -1.262,2.274 -1.262,5.859 0,3.149 0.047,3.481 0.637,4.735 0.859,1.832 2.246,2.762 3.715,2.492 0.265,-0.051 0.664,-0.094 0.886,-0.094 z m 14.422,1.711 c -3.355,-1.312 -5.039,-4.293 -5.039,-8.926 0,-4.765 1.859,-7.793 5.496,-8.941 0.902,-0.285 1.985,-0.52 2.402,-0.52 0.973,0 3.243,0.5 3.637,0.797 0.348,0.266 0.414,2.102 0.074,2.102 -0.125,0 -0.949,-0.168 -1.835,-0.371 -1.477,-0.344 -1.711,-0.34 -2.833,0.031 -1.632,0.543 -3.125,2.047 -3.675,3.707 -0.563,1.688 -0.438,5.766 0.215,7.024 0.609,1.179 1.781,2.371 2.898,2.945 0.769,0.398 1.242,0.465 2.539,0.359 0.875,-0.07 1.895,-0.203 2.27,-0.297 0.675,-0.168 0.679,-0.164 0.605,0.883 -0.062,0.84 -0.199,1.113 -0.68,1.356 -0.937,0.472 -4.722,0.379 -6.074,-0.149 z m -186.379,-0.086 c -0.066,-0.164 -0.09,-4.215 -0.054,-9 l 0.062,-8.695 2.242,-0.07 c 1.664,-0.051 2.262,0.011 2.324,0.242 0.383,1.336 0.747,2.668 1.473,5.387 0.465,1.726 0.941,3.464 1.055,3.863 0.117,0.398 0.347,1.215 0.508,1.812 0.492,1.786 0.773,2.133 1.41,1.727 0.172,-0.106 0.851,-2.145 1.508,-4.524 1.14,-4.121 1.433,-5.167 1.992,-7.109 0.133,-0.465 0.281,-0.984 0.324,-1.156 0.062,-0.231 0.629,-0.293 2.203,-0.242 l 2.117,0.07 0.125,18 h -1.062 c -0.774,0 -1.106,-0.113 -1.219,-0.406 -0.086,-0.223 -0.144,-3.332 -0.125,-6.91 0.016,-4.137 -0.062,-6.602 -0.219,-6.758 -0.297,-0.293 -0.98,-0.074 -1.101,0.355 -0.047,0.172 -0.223,0.797 -0.391,1.395 -0.164,0.601 -0.488,1.687 -0.723,2.418 -0.711,2.25 -1.632,5.343 -2.199,7.367 -0.652,2.351 -0.785,2.539 -1.785,2.539 -0.848,0 -0.949,-0.156 -1.57,-2.418 -0.164,-0.598 -0.383,-1.359 -0.489,-1.691 -0.105,-0.332 -0.703,-2.45 -1.324,-4.711 -0.625,-2.258 -1.23,-4.356 -1.351,-4.657 -0.266,-0.683 -0.918,-0.961 -1.203,-0.511 -0.118,0.183 -0.215,3.41 -0.219,7.164 l -0.004,6.824 h -1.094 c -0.656,0 -1.14,-0.121 -1.211,-0.305 z m 39.813,-8.695 0.062,-9 3.563,-0.066 c 3.117,-0.059 3.672,-0.008 4.468,0.394 1.602,0.82 1.864,1.293 1.961,3.547 l 0.082,2.012 -1.109,1.191 c -0.613,0.652 -1.113,1.297 -1.113,1.43 0,0.136 0.429,0.539 0.949,0.902 1.215,0.84 1.711,1.902 1.711,3.656 0,2.403 -1.211,4.067 -3.406,4.7 -0.453,0.128 -2.262,0.234 -4.028,0.234 h -3.203 z m 6.394,6.594 c 0.992,-0.606 1.52,-1.641 1.52,-2.985 0,-1.867 -1.453,-3.066 -3.719,-3.066 -1.648,0 -1.836,0.328 -1.836,3.176 0,1.328 0.113,2.625 0.25,2.879 0.352,0.664 2.695,0.66 3.785,-0.004 z m -0.734,-8.211 c 0.555,-0.25 1.195,-0.739 1.422,-1.086 0.515,-0.789 0.57,-2.293 0.113,-3.153 -0.453,-0.843 -1.902,-1.574 -3.117,-1.574 -1.512,0 -1.719,0.379 -1.719,3.145 0,2.191 0.043,2.414 0.535,2.762 0.707,0.496 1.535,0.468 2.766,-0.094 z m 9.078,1.629 0.063,-9.012 h 2.417 v 17.879 l -1.273,0.074 -1.27,0.07 z m 7.488,-0.012 0.067,-9 h 2.414 l 0.121,7.691 c 0.113,7.258 0.148,7.711 0.59,8.036 0.336,0.246 1.207,0.339 3.082,0.339 h 2.609 v 1.934 h -8.945 z m 12.325,0 0.062,-9 h 8.938 l 0.074,0.746 c 0.039,0.418 -0.071,0.867 -0.258,1.02 -0.192,0.16 -1.524,0.3 -3.211,0.339 l -2.887,0.071 -0.066,2.441 c -0.051,1.813 0.015,2.508 0.254,2.707 0.183,0.153 1.488,0.301 2.968,0.34 l 2.645,0.07 v 1.93 l -2.898,0.121 -2.903,0.121 -0.066,2.746 c -0.047,1.817 0.023,2.856 0.211,3.078 0.211,0.254 1.008,0.336 3.269,0.336 h 2.989 v 1.934 h -9.184 z m 17.101,8.832 c 0.004,-0.105 1.336,-4.16 2.961,-9.012 l 2.953,-8.82 h 3.34 l 1.504,4.59 c 0.828,2.527 2.015,6.222 2.637,8.215 0.621,1.996 1.23,3.875 1.355,4.179 0.387,0.957 0.281,1.043 -1.141,0.969 l -1.363,-0.074 -0.539,-1.871 c -0.297,-1.031 -0.676,-2.035 -0.84,-2.235 -0.238,-0.289 -0.941,-0.363 -3.383,-0.363 -3.601,0 -3.461,-0.086 -4.347,2.625 l -0.606,1.844 -1.269,0.074 c -0.696,0.039 -1.266,-0.016 -1.262,-0.121 z m 9.899,-6.715 c 0.332,-0.402 0.343,-0.347 -0.68,-4.23 -0.926,-3.5 -1.156,-4.106 -1.578,-4.106 -0.614,0 -0.684,0.168 -2.141,5.071 -0.141,0.468 -0.348,1.097 -0.461,1.402 -0.297,0.777 -0.266,1.594 0.078,1.933 0.446,0.45 4.403,0.387 4.782,-0.07 z m 8.273,-2.117 0.062,-9 h 3.383 l 0.524,1.09 c 0.289,0.597 1.531,3.476 2.761,6.402 2.235,5.305 2.735,6.25 3.223,6.086 0.172,-0.058 0.301,-2.348 0.379,-6.832 l 0.121,-6.746 h 2.418 v 17.879 h -3.605 l -1.145,-2.656 c -0.629,-1.461 -1.355,-3.149 -1.613,-3.746 -0.258,-0.598 -0.981,-2.336 -1.602,-3.864 -1.191,-2.914 -1.664,-3.574 -2.226,-3.109 -0.254,0.211 -0.321,1.668 -0.321,6.883 v 6.613 h -2.422 z m 17.398,0.027 0.063,-9.027 3.328,-0.066 c 4.324,-0.09 5.996,0.414 7.707,2.308 1.434,1.586 1.77,2.832 1.77,6.578 0,3.09 -0.039,3.34 -0.704,4.785 -0.824,1.786 -2.293,3.196 -3.961,3.809 -0.808,0.293 -2.167,0.445 -4.703,0.527 l -3.566,0.114 z m 6.325,6.649 c 1.394,-0.477 2.679,-1.707 3.3,-3.16 0.61,-1.422 0.657,-5.586 0.078,-6.989 -0.949,-2.3 -2.343,-3.367 -4.71,-3.609 -2.489,-0.258 -2.395,-0.527 -2.395,6.961 0,5.527 0.051,6.359 0.402,6.746 0.5,0.555 1.782,0.574 3.325,0.051 z m 63.98,-6.664 0.066,-9.012 h 2.415 v 17.879 l -1.27,0.074 -1.273,0.074 z m 5.742,8.609 c 0,-0.516 5.559,-17.062 5.86,-17.441 0.144,-0.176 0.808,-0.301 1.632,-0.301 1.504,0 1.676,0.117 2.102,1.449 1.059,3.313 4.102,12.762 4.57,14.199 0.801,2.45 0.793,2.473 -0.601,2.473 -1.246,0 -1.571,-0.219 -1.793,-1.207 -0.778,-3.43 -0.711,-3.383 -4.551,-3.383 -3.504,0 -3.441,-0.035 -4.066,2.176 -0.692,2.434 -0.676,2.414 -1.973,2.414 -0.91,0 -1.18,-0.086 -1.18,-0.379 z m 9.86,-6.894 c 0.039,-0.344 -0.161,-1.489 -0.446,-2.536 -0.289,-1.05 -0.609,-2.289 -0.718,-2.754 -0.395,-1.679 -0.633,-2.265 -1.028,-2.515 -0.285,-0.176 -0.48,-0.176 -0.664,0.004 -0.14,0.14 -0.75,1.965 -1.359,4.051 -0.899,3.093 -1.043,3.855 -0.797,4.152 0.238,0.289 0.789,0.351 2.621,0.297 2.297,-0.071 2.316,-0.074 2.391,-0.699 z m 8.078,-1.727 0.062,-9 h 2.418 l 0.063,7.598 c 0.054,6.64 0.113,7.648 0.461,8.031 0.34,0.375 0.797,0.437 3.136,0.437 h 2.743 v 1.934 h -8.946 z m -92.719,-21.965 c -0.664,-0.09 -1.883,-0.172 -2.711,-0.183 -0.828,-0.008 -2.023,-0.141 -2.656,-0.286 -6.758,-1.57 -10.254,-3.339 -13.856,-7.015 -4.527,-4.617 -6.535,-8.949 -8.164,-17.606 -1.031,-5.476 -1.027,-12.773 0.008,-18.363 1.215,-6.547 2.934,-10.953 5.719,-14.641 3.945,-5.23 8.668,-8.222 15.437,-9.785 3.18,-0.73 9.536,-0.898 13.004,-0.336 8.137,1.317 14.133,5.09 18.336,11.543 1.988,3.047 3.528,7.157 4.461,11.891 0.777,3.953 0.856,4.887 0.852,10.512 -0.004,6.824 -0.239,8.574 -2.028,15.339 -1.582,5.977 -6.074,12.059 -11.058,14.977 -1.785,1.047 -5.102,2.422 -7.192,2.984 -2.511,0.676 -8.242,1.223 -10.152,0.969 z m 4.363,-10.965 c 2.77,-0.718 5.242,-2.75 6.965,-5.73 1.086,-1.871 2.207,-5.774 2.836,-9.844 0.418,-2.707 0.414,-12.945 -0.004,-15.703 -1.387,-9.156 -4.648,-14.227 -9.937,-15.445 -2.653,-0.614 -6.512,-0.153 -8.5,1.015 -1.5,0.879 -4.121,3.739 -4.84,5.281 -2.051,4.391 -3.078,10.067 -3.082,17.016 -0.004,5.141 0.469,8.945 1.636,13.152 1.543,5.559 4.571,9.118 8.754,10.286 1.528,0.425 4.469,0.414 6.172,-0.028 z m 123.934,11.004 c -0.399,-0.101 -1.254,-0.199 -1.902,-0.215 -0.649,-0.015 -1.575,-0.132 -2.055,-0.257 -0.481,-0.129 -1.84,-0.469 -3.02,-0.758 -2.734,-0.672 -5.179,-1.559 -5.785,-2.094 -0.437,-0.395 -0.457,-0.633 -0.289,-3.805 0.098,-1.859 0.246,-4.812 0.336,-6.566 0.086,-1.75 0.238,-3.262 0.336,-3.363 0.102,-0.098 1.242,0.328 2.535,0.945 4.742,2.262 8.457,3.305 13.531,3.809 10.621,1.05 17.215,-4.168 17.215,-13.629 0,-2.723 -0.465,-4.34 -1.836,-6.403 -1.863,-2.808 -4.273,-4.543 -13.144,-9.461 -7.012,-3.886 -9.199,-5.257 -11.938,-7.465 -3.867,-3.121 -6.797,-8.195 -8.008,-13.875 -0.519,-2.445 -0.46,-8.203 0.118,-10.796 1.82,-8.227 7.148,-13.934 15.961,-17.11 4.289,-1.543 9.48,-2.125 15.429,-1.726 5.078,0.343 7.25,0.703 12.356,2.054 2.316,0.614 2.972,0.996 2.808,1.645 -0.074,0.293 -0.254,3.031 -0.398,6.086 -0.149,3.051 -0.36,5.64 -0.473,5.754 -0.109,0.117 -1.297,-0.18 -2.656,-0.664 -5.027,-1.789 -9.238,-2.563 -13.926,-2.563 -4.937,0 -8.015,1.113 -10.457,3.777 -1.676,1.829 -2.332,3.313 -2.711,6.129 -0.605,4.497 1.41,8.454 5.879,11.528 0.969,0.668 4.914,2.976 8.766,5.136 8.269,4.629 11.101,6.469 13.699,8.915 3.984,3.746 5.859,7.468 6.719,13.324 0.39,2.664 0.187,9.129 -0.36,11.594 -0.547,2.449 -2.117,6.554 -3.082,8.066 -1.242,1.949 -3.879,4.812 -5.668,6.164 -3.179,2.394 -8.078,4.484 -12.515,5.344 -0.797,0.152 -1.907,0.379 -2.461,0.5 -1.203,0.261 -11.957,0.246 -13.004,-0.02 z m -53.996,-0.242 c -5.77,-0.758 -10.461,-4.012 -13.418,-9.293 -1,-1.789 -1.203,-1.98 -1.696,-1.57 -0.273,0.226 -0.355,0.98 -0.367,3.343 -0.007,1.676 -0.144,3.864 -0.3,4.864 l -0.29,1.808 h -14.011 l 0.082,-0.843 c 0.043,-0.465 0.152,-22.371 0.242,-48.684 l 0.16,-47.84 h 14.977 l 0.125,20.055 c 0.07,11.027 0.152,20.082 0.183,20.113 0.223,0.238 1.067,-0.019 1.192,-0.363 0.328,-0.902 1.859,-3.086 3.019,-4.313 3.567,-3.773 8.078,-5.652 13.563,-5.652 5.992,0 10.746,1.887 14.472,5.75 5.746,5.949 8.661,15.473 8.664,28.316 0.004,4.918 -0.324,8.621 -1.117,12.7 -0.754,3.859 -1.527,6.148 -3.265,9.648 -1.746,3.523 -3.985,6.363 -6.481,8.234 -2.211,1.653 -3.105,2.11 -5.863,3.012 -1.824,0.598 -2.692,0.731 -5.246,0.82 -1.68,0.055 -3.762,0.008 -4.625,-0.105 z m 3.129,-11.414 c 1.687,-0.59 3.961,-2.445 4.949,-4.043 2,-3.223 2.906,-8 3.187,-16.797 0.348,-10.836 -1.441,-18.601 -5.117,-22.187 -1.754,-1.715 -3.402,-2.539 -5.703,-2.856 -6.965,-0.969 -12.113,3.703 -13.887,12.598 -0.484,2.433 -1.043,7.887 -1.046,10.269 -0.004,2.496 0.593,8.7 1.05,10.875 0.852,4.047 2.473,7.469 4.532,9.559 2.3,2.336 4.164,3.062 7.937,3.101 2.059,0.024 2.832,-0.074 4.098,-0.519 z M 188.16,413.723 c -0.066,-0.164 -0.09,-20.578 -0.055,-45.364 l 0.063,-45.058 h 23.918 l 0.555,1.812 c 0.304,0.996 0.671,2.246 0.812,2.778 0.145,0.531 0.348,1.238 0.449,1.57 0.106,0.332 0.43,1.527 0.723,2.66 0.293,1.129 0.617,2.324 0.719,2.656 0.218,0.696 0.344,1.141 1.812,6.524 1.297,4.75 1.571,5.726 1.821,6.523 0.105,0.332 0.527,1.856 0.937,3.383 0.949,3.527 3.809,13.902 4.098,14.859 0.121,0.399 0.558,1.973 0.972,3.504 1.067,3.938 3.844,13.992 4.102,14.86 0.121,0.398 0.574,2.027 1.008,3.621 0.808,2.972 1.273,3.781 1.844,3.203 0.238,-0.238 2.41,-7.656 5.187,-17.699 0.145,-0.532 0.352,-1.239 0.453,-1.571 0.102,-0.332 0.32,-1.093 0.481,-1.691 0.164,-0.598 0.382,-1.359 0.484,-1.691 0.102,-0.332 0.305,-1.04 0.453,-1.571 0.145,-0.531 0.758,-2.707 1.363,-4.832 0.602,-2.125 1.2,-4.246 1.332,-4.711 0.243,-0.851 5.559,-19.828 6.063,-21.625 0.148,-0.531 0.351,-1.238 0.453,-1.57 0.102,-0.332 0.32,-1.094 0.484,-1.691 0.164,-0.598 0.387,-1.36 0.497,-1.692 0.109,-0.332 0.605,-2.07 1.097,-3.863 0.496,-1.797 1.004,-3.399 1.133,-3.567 0.184,-0.238 2.715,-0.292 11.742,-0.242 l 11.504,0.063 v 90.605 h -14.012 l -0.125,-37.933 c -0.066,-20.864 -0.148,-37.961 -0.179,-37.996 -0.032,-0.032 -0.219,-0.059 -0.414,-0.059 -0.446,0 -0.793,0.648 -1.34,2.512 -0.239,0.812 -0.832,2.781 -1.321,4.375 -0.488,1.593 -1.324,4.367 -1.855,6.16 -0.535,1.793 -1.188,3.969 -1.453,4.832 -0.266,0.863 -0.57,1.898 -0.684,2.297 -0.109,0.398 -0.418,1.429 -0.683,2.293 -0.813,2.633 -2.731,9.015 -2.942,9.785 -0.109,0.398 -0.437,1.488 -0.722,2.418 -0.289,0.93 -0.61,2.015 -0.719,2.414 -0.106,0.398 -0.469,1.598 -0.809,2.66 -0.336,1.063 -1.066,3.453 -1.617,5.313 -0.555,1.863 -1.312,4.418 -1.687,5.679 -0.375,1.262 -1.411,4.688 -2.301,7.61 -0.891,2.925 -1.707,5.644 -1.813,6.043 -0.109,0.398 -0.433,1.484 -0.718,2.414 -0.29,0.929 -0.614,2.019 -0.727,2.418 -0.109,0.398 -0.418,1.429 -0.684,2.293 -0.265,0.863 -0.668,2.168 -0.894,2.898 -0.223,0.734 -0.531,1.41 -0.684,1.508 -0.152,0.098 -2.625,0.18 -5.5,0.18 -3.89,0.003 -5.289,-0.071 -5.472,-0.297 -0.137,-0.164 -0.59,-1.496 -1.008,-2.961 -0.418,-1.461 -0.852,-2.93 -0.961,-3.262 -0.113,-0.332 -0.324,-1.039 -0.473,-1.57 -0.148,-0.532 -2.344,-8.196 -4.879,-17.032 -4.16,-14.496 -8.113,-28.308 -8.699,-30.382 -0.121,-0.434 -0.336,-1.196 -0.477,-1.692 -0.14,-0.5 -0.359,-1.258 -0.484,-1.691 -0.125,-0.434 -0.328,-1.141 -0.449,-1.571 -0.207,-0.73 -3.176,-10.996 -3.649,-12.624 -0.113,-0.399 -0.316,-1.145 -0.445,-1.661 -0.281,-1.117 -0.594,-1.476 -1.105,-1.277 -0.34,0.129 -0.379,3.832 -0.379,37.793 0,28.965 -0.067,37.719 -0.289,37.941 -0.426,0.426 -13.692,0.414 -13.852,-0.011 z"
         style="fill:#b8b2b2;fill-opacity:1;fill-rule:nonzero;stroke:none;stroke-opacity:1"
         id="path16"
         inkscape:connector-curvature="0" /><g
         id="g843"
         transform="matrix(1.6657425,0,0,1.6657425,-136.8259,-219.00797)"><path
           inkscape:connector-curvature="0"
           id="path18"
           style="fill:#54077a;fill-opacity:1;fill-rule:nonzero;stroke:none"
           d="m 126.742,414.66 c -2.051,-0.148 -5.777,-1.043 -8.508,-2.035 -4.164,-1.52 -11.722,-5.945 -16.48,-9.652 l -1.555,-1.211 h 1.68 c 3.559,0 6.312,-0.481 10.672,-1.864 2.34,-0.738 2.742,-0.941 2.867,-1.445 0.184,-0.73 -0.273,-1.238 -3.172,-3.531 -1.195,-0.945 -2.883,-2.328 -3.746,-3.074 -2.418,-2.086 -3.891,-3.133 -4.406,-3.133 -0.258,0 -0.906,0.371 -1.438,0.828 -1.566,1.34 -2.508,1.687 -4.543,1.68 -1.07,-0.008 -2.34,-0.184 -3.101,-0.438 -1.649,-0.551 -4.606,-2.527 -5.731,-3.836 -1.406,-1.629 -3.429,-6.086 -4.414,-9.711 -1.242,-4.578 -0.539,-13.808 1.633,-21.445 0.141,-0.496 0.352,-1.258 0.469,-1.688 0.574,-2.128 1.765,-5.5 1.941,-5.5 0.11,0 0.442,0.735 0.742,1.633 0.77,2.309 2.481,5.653 4.047,7.914 2.645,3.813 3.227,4.348 4.11,3.786 0.406,-0.258 4.652,-12.434 4.652,-13.34 0,-0.25 -0.293,-0.649 -0.656,-0.887 -1.606,-1.066 -3.176,-2.922 -3.555,-4.199 -1.824,-6.141 2.543,-13.192 10.613,-17.125 2.567,-1.254 5.907,-2.434 8.094,-2.86 0.731,-0.144 1.926,-0.379 2.656,-0.519 2.899,-0.563 14.453,-0.977 16.41,-0.582 l 0.766,0.152 -1.641,1.098 c -2.086,1.398 -5.347,4.652 -7.293,7.277 -2.503,3.379 -2.863,4.465 -1.57,4.731 0.317,0.066 0.879,0.183 1.242,0.261 0.368,0.078 1.59,0.235 2.719,0.352 1.129,0.113 3.504,0.379 5.277,0.594 2.938,0.351 3.278,0.351 3.805,0.004 0.473,-0.309 0.582,-0.586 0.582,-1.477 0,-3.656 2.652,-6.406 6.887,-7.145 3.738,-0.652 5.441,-0.402 9.141,1.332 4.25,1.997 8.343,5.719 11.453,10.415 1.832,2.769 4.738,8.273 5.871,11.125 0.894,2.246 2.625,7.449 2.515,7.57 -0.039,0.047 -0.746,-0.375 -1.566,-0.934 -3.629,-2.461 -9.672,-4.996 -10.574,-4.433 -0.496,0.312 -0.657,1.355 -0.336,2.23 0.258,0.715 0.359,1.067 1.754,6.195 0.543,1.993 1.148,3.75 1.34,3.899 0.195,0.152 1.066,0.351 1.937,0.445 2.117,0.227 2.953,0.613 4.422,2.047 1.285,1.25 2.754,3.93 3.23,5.891 0.289,1.191 0.34,4.949 0.082,6.324 -1.222,6.531 -4.75,12.465 -11.066,18.613 -3.195,3.113 -7.645,6.801 -10.145,8.418 l -0.64,0.414 0.367,-1.039 c 0.375,-1.047 0.609,-1.965 1.074,-4.18 0.282,-1.351 0.551,-9.324 0.34,-10.16 -0.172,-0.683 -0.754,-0.91 -1.426,-0.55 -1.398,0.746 -10.699,8.031 -10.894,8.535 -0.156,0.398 -0.102,0.879 0.179,1.621 0.637,1.668 0.536,4.058 -0.238,5.64 -1.402,2.864 -5.191,5.696 -8.715,6.512 -1.48,0.344 -6.14,0.606 -8.16,0.457 z m 22.567,-19.918 c 3.234,-2.445 6,-4.699 6.14,-5.012 0.184,-0.406 0.176,-0.863 -0.031,-1.64 -0.156,-0.59 -0.285,-1.309 -0.285,-1.598 0,-0.285 -0.106,-0.855 -0.235,-1.265 -0.128,-0.407 -0.296,-1.133 -0.367,-1.61 -0.093,-0.625 -0.304,-0.949 -0.742,-1.148 -0.762,-0.348 -11.148,-0.387 -12.043,-0.043 -0.383,0.144 -0.668,0.484 -0.762,0.902 -0.617,2.817 -2.675,5.262 -4.953,5.871 -1.054,0.285 -1.195,0.555 -1.195,2.301 0,1.742 0.301,2.293 1.656,3.047 1.242,0.691 4.375,3.144 5.348,4.187 0.375,0.403 0.789,0.61 1.094,0.551 0.269,-0.051 3.136,-2.094 6.375,-4.543 z m -28.547,1.594 c 3.902,-1.898 3.758,-1.398 1.883,-6.535 -0.485,-1.328 -1.207,-3.34 -1.602,-4.469 -0.395,-1.129 -0.906,-2.227 -1.133,-2.441 -0.23,-0.211 -1.258,-0.508 -2.293,-0.661 -1.031,-0.152 -2.289,-0.488 -2.797,-0.746 -1.097,-0.558 -2.488,-2.043 -3.179,-3.398 -0.586,-1.152 -1.34,-1.516 -2.602,-1.258 -1.105,0.223 -1.746,1.309 -1.746,2.969 0,1.262 -0.625,3.316 -1.688,5.562 -0.398,0.848 -0.73,1.711 -0.73,1.918 0,0.203 0.41,0.762 0.906,1.235 1.504,1.429 11.371,9.383 11.641,9.383 0.078,0 1.578,-0.7 3.34,-1.559 z m 6.945,-3.078 c 1.102,-0.305 3.801,-0.356 4.734,-0.09 0.907,0.258 1.43,-0.359 1.43,-1.691 0,-1.301 -0.547,-1.942 -1.859,-2.176 -1.93,-0.352 -3.844,-1.863 -4.836,-3.828 -0.508,-1 -0.617,-1.559 -0.617,-3.137 0,-1.688 -0.071,-1.988 -0.563,-2.484 -0.789,-0.79 -1.406,-0.7 -2.582,0.371 -0.562,0.511 -1.266,1.058 -1.562,1.215 -0.809,0.425 -0.914,1.296 -0.332,2.808 0.281,0.731 0.738,1.953 1.019,2.715 0.277,0.766 0.598,1.609 0.707,1.875 0.109,0.266 0.481,1.289 0.82,2.273 0.344,0.989 0.809,2 1.039,2.254 0.43,0.477 0.512,0.473 2.602,-0.105 z m 25.902,-12.156 c 0.446,-0.309 0.536,-0.657 0.621,-2.356 0.059,-1.094 0.223,-2.426 0.372,-2.957 0.328,-1.195 -0.063,-1.922 -1.313,-2.445 -0.961,-0.403 -1.059,-0.36 -2.223,0.926 -1.125,1.25 -2.613,2.253 -3.668,2.488 -1.343,0.293 -3.558,0.18 -4.855,-0.254 -1.113,-0.371 -1.242,-0.371 -1.809,0 -1.132,0.742 -1.199,1.332 -0.332,3.051 0.43,0.851 0.899,1.629 1.051,1.726 0.149,0.098 2.828,0.18 5.953,0.18 4.676,0.004 5.778,-0.059 6.203,-0.359 z m -25.613,-3.258 c 0.609,-0.664 1.613,-1.492 2.223,-1.84 0.984,-0.563 1.383,-0.637 3.429,-0.645 2.086,-0.007 2.442,0.059 3.547,0.664 1.473,0.801 2.379,0.707 2.625,-0.265 0.114,-0.465 -0.086,-1.098 -0.761,-2.418 -1.786,-3.465 -1.387,-5.762 1.55,-9.012 0.883,-0.973 0.942,-1.519 0.239,-2.223 -0.461,-0.457 -0.657,-0.488 -1.875,-0.308 -4.055,0.601 -6.797,-0.57 -8.641,-3.695 -0.66,-1.114 -1.164,-1.383 -2.125,-1.141 -0.773,0.195 -1.102,0.762 -1.102,1.906 0,0.969 -0.843,2.797 -1.824,3.965 -0.843,1.004 -2.332,1.836 -3.976,2.223 -1.746,0.414 -1.973,0.609 -1.883,1.644 0.066,0.797 0.203,0.934 1.851,1.84 3.539,1.945 5.079,5.293 4.012,8.746 -0.117,0.387 0.004,0.695 0.457,1.149 0.336,0.339 0.735,0.617 0.879,0.617 0.145,0 0.762,-0.543 1.375,-1.207 z M 110.25,375.75 c 0.234,-0.062 0.484,-0.406 0.559,-0.762 0.664,-3.176 1.867,-5.008 4.093,-6.242 0.797,-0.441 1.739,-0.805 2.086,-0.808 0.703,0 1.035,-0.317 1.246,-1.176 0.231,-0.938 -0.211,-1.66 -1.324,-2.157 -0.574,-0.253 -1.519,-0.867 -2.109,-1.359 -0.77,-0.648 -1.215,-0.863 -1.602,-0.766 -0.566,0.145 -7.578,4.891 -8.504,5.754 -0.3,0.282 -0.543,0.668 -0.543,0.856 0,0.191 0.543,1.16 1.207,2.156 0.668,0.992 1.282,2.094 1.364,2.449 0.203,0.844 0.808,2.047 1.148,2.27 0.246,0.164 1.371,0.062 2.379,-0.215 z m 47.613,-4.793 c 1.977,-1.922 2.731,-2.477 4.629,-3.398 1.25,-0.61 2.391,-1.247 2.535,-1.422 0.266,-0.321 0.078,-1.184 -1.211,-5.629 -0.375,-1.297 -0.64,-2.246 -1.254,-4.531 -0.96,-3.582 -0.867,-3.5 -4.824,-4.106 -1.367,-0.207 -3.222,-0.496 -4.125,-0.637 -2.32,-0.363 -2.297,-0.39 -3.578,4.016 -1.07,3.688 -1.699,5.742 -1.945,6.371 -0.328,0.844 -0.09,1.285 1.098,2.035 1.105,0.696 1.921,1.621 2.785,3.16 0.39,0.696 0.5,1.317 0.5,2.817 0,1.629 0.078,2.004 0.504,2.429 0.492,0.493 1.785,1.161 2.281,1.18 0.137,0.004 1.308,-1.023 2.605,-2.285 z m -49.715,-6.242 4.582,-3.219 -0.089,-2.437 c -0.079,-2.223 -0.028,-2.563 0.547,-3.821 0.347,-0.761 1.011,-1.8 1.476,-2.316 0.465,-0.512 0.844,-1.047 0.844,-1.184 0,-0.41 -1.141,-2.535 -1.539,-2.863 -0.297,-0.246 -0.633,-0.25 -1.672,-0.016 -1.223,0.274 -4.188,0.215 -7.18,-0.136 -0.597,-0.071 -1.23,-0.032 -1.406,0.086 -0.348,0.23 -4.871,13.191 -5.059,14.492 -0.105,0.738 0.043,0.957 1.805,2.719 1.363,1.363 2.09,1.918 2.516,1.918 0.379,0 2.285,-1.188 5.175,-3.219 z m 38.543,-2.348 c 0.211,-0.109 0.52,-0.668 0.692,-1.242 0.176,-0.574 0.402,-1.313 0.512,-1.645 0.109,-0.332 0.433,-1.421 0.726,-2.418 0.289,-0.996 0.734,-2.417 0.984,-3.156 0.524,-1.554 0.583,-2.722 0.149,-3.058 -0.164,-0.125 -0.789,-0.422 -1.387,-0.653 -0.597,-0.234 -1.703,-0.804 -2.453,-1.269 -1.211,-0.746 -1.434,-0.809 -1.934,-0.543 -1.32,0.703 -1.449,1.488 -0.566,3.414 1.199,2.625 0.961,5.094 -0.703,7.273 -1.293,1.696 -1.375,1.922 -0.961,2.719 0.199,0.383 0.492,0.789 0.652,0.895 0.336,0.23 3.735,-0.02 4.289,-0.317 z m -17.687,-6.722 c 0.25,-0.247 0.527,-0.981 0.617,-1.629 0.09,-0.649 0.277,-1.477 0.422,-1.84 0.371,-0.949 0.082,-1.758 -0.824,-2.309 -0.43,-0.265 -1.871,-1.234 -3.203,-2.152 -1.328,-0.918 -2.996,-2.07 -3.711,-2.563 -0.711,-0.492 -1.442,-0.894 -1.621,-0.894 -0.18,0 -0.848,0.461 -1.485,1.027 -0.637,0.563 -1.726,1.387 -2.414,1.832 -0.691,0.442 -1.324,1.016 -1.406,1.274 -0.172,0.543 0.75,2.621 1.176,2.652 0.156,0.012 1.437,0.004 2.851,-0.016 2.305,-0.035 2.692,0.024 3.746,0.559 1.325,0.676 2.137,1.476 3.114,3.062 0.367,0.598 0.789,1.168 0.937,1.266 0.477,0.32 1.344,0.191 1.801,-0.266 z m 3.016,-6.27 c 0.839,-0.93 2.628,-1.602 4.507,-1.691 1.547,-0.075 2.024,0.004 3.235,0.539 1.754,0.773 2.086,0.777 2.89,0.035 0.825,-0.766 0.809,-1.356 -0.086,-2.918 -0.984,-1.715 -2.171,-4.641 -2.171,-5.34 0,-0.312 -0.301,-0.891 -0.665,-1.285 -0.617,-0.66 -0.855,-0.735 -3.203,-0.973 -1.394,-0.144 -3.351,-0.363 -4.347,-0.488 -5.395,-0.676 -7.465,-0.809 -7.84,-0.496 -0.207,0.172 -1.043,1.566 -1.863,3.101 -1.395,2.614 -1.469,2.829 -1.149,3.391 0.481,0.848 8.875,6.543 9.664,6.555 0.348,0.004 0.809,-0.188 1.028,-0.43 z" /><circle
           r="6.6309648"
           cy="358.12253"
           cx="119.73684"
           id="path20"
           style="opacity:1;fill:#54077a;fill-opacity:1;stroke:#54077a;stroke-width:1.80585539;stroke-miterlimit:4;stroke-dasharray:none;stroke-dashoffset:0;stroke-opacity:1" /><circle
           style="opacity:1;fill:#54077a;fill-opacity:1;stroke:#54077a;stroke-width:1.80585539;stroke-miterlimit:4;stroke-dasharray:none;stroke-dashoffset:0;stroke-opacity:1"
           id="circle827"
           cx="136.94858"
           cy="354.80722"
           r="6.6309648" /><circle
           r="6.6309648"
           cy="369.78445"
           cx="144.989"
           id="circle829"
           style="opacity:1;fill:#54077a;fill-opacity:1;stroke:#54077a;stroke-width:1.80585539;stroke-miterlimit:4;stroke-dasharray:none;stroke-dashoffset:0;stroke-opacity:1" /><circle
           style="opacity:1;fill:#54077a;fill-opacity:1;stroke:#54077a;stroke-width:1.80585539;stroke-miterlimit:4;stroke-dasharray:none;stroke-dashoffset:0;stroke-opacity:1"
           id="circle831"
           cx="133.95314"
           cy="382.23923"
           r="6.6309648" /><circle
           style="opacity:1;fill:#54077a;fill-opacity:1;stroke:#54077a;stroke-width:1.80585539;stroke-miterlimit:4;stroke-dasharray:none;stroke-dashoffset:0;stroke-opacity:1"
           id="circle835"
           cx="118.39449"
           cy="375.25314"
           r="6.6309648" /></g></g></g></svg>